<svg xmlns="http://www.w3.org/2000/svg" width="720" height="360" viewBox="0 0 720 360" font-family="sans-serif">
<line x1="52" y1="316.0" x2="704" y2="316.0" stroke="#8b8b8b" stroke-opacity="0.25"/>
<text x="44" y="320.0" text-anchor="end" font-size="12" fill="#8b8b8b">0%</text>
<line x1="52" y1="256.4" x2="704" y2="256.4" stroke="#8b8b8b" stroke-opacity="0.25"/>
<text x="44" y="260.4" text-anchor="end" font-size="12" fill="#8b8b8b">20%</text>
<line x1="52" y1="196.8" x2="704" y2="196.8" stroke="#8b8b8b" stroke-opacity="0.25"/>
<text x="44" y="200.8" text-anchor="end" font-size="12" fill="#8b8b8b">40%</text>
<line x1="52" y1="137.2" x2="704" y2="137.2" stroke="#8b8b8b" stroke-opacity="0.25"/>
<text x="44" y="141.2" text-anchor="end" font-size="12" fill="#8b8b8b">60%</text>
<line x1="52" y1="77.6" x2="704" y2="77.6" stroke="#8b8b8b" stroke-opacity="0.25"/>
<text x="44" y="81.6" text-anchor="end" font-size="12" fill="#8b8b8b">80%</text>
<line x1="52" y1="18.0" x2="704" y2="18.0" stroke="#8b8b8b" stroke-opacity="0.25"/>
<text x="44" y="22.0" text-anchor="end" font-size="12" fill="#8b8b8b">100%</text>
<line x1="52" y1="77.6" x2="704" y2="77.6" stroke="#F43F5E" stroke-dasharray="6 4" stroke-opacity="0.8"/>
<text x="704" y="71.6" text-anchor="end" font-size="12" fill="#F43F5E">목표 80%</text>
<text x="52.0" y="336" text-anchor="middle" font-size="12" fill="#8b8b8b">1</text>
<text x="124.4" y="336" text-anchor="middle" font-size="12" fill="#8b8b8b">2</text>
<text x="196.9" y="336" text-anchor="middle" font-size="12" fill="#8b8b8b">3</text>
<text x="269.3" y="336" text-anchor="middle" font-size="12" fill="#8b8b8b">4</text>
<text x="341.8" y="336" text-anchor="middle" font-size="12" fill="#8b8b8b">5</text>
<text x="414.2" y="336" text-anchor="middle" font-size="12" fill="#8b8b8b">6</text>
<text x="486.7" y="336" text-anchor="middle" font-size="12" fill="#8b8b8b">7</text>
<text x="559.1" y="336" text-anchor="middle" font-size="12" fill="#8b8b8b">8</text>
<text x="631.6" y="336" text-anchor="middle" font-size="12" fill="#8b8b8b">9</text>
<text x="704.0" y="336" text-anchor="middle" font-size="12" fill="#8b8b8b">10</text>
<text x="704" y="354" text-anchor="end" font-size="12" fill="#8b8b8b">epoch</text>
<polyline points="52.0,153.3 124.4,130.9 196.9,121.3 269.3,118.3 341.8,116.5 414.2,115.8 486.7,113.7 559.1,109.2 631.6,110.3 704.0,109.9" fill="none" stroke="#6366F1" stroke-width="2" stroke-linejoin="round"/>
<circle cx="704.0" cy="109.9" r="3.5" fill="#6366F1"/>
<rect x="64" y="21" width="10" height="10" fill="#6366F1"/>
<text x="80" y="30" font-size="12" fill="#8b8b8b">exp01_fc_only · 최고 69.4%</text>
<polyline points="52.0,130.2 124.4,106.8 196.9,97.8 269.3,94.4 341.8,91.3 414.2,91.9 486.7,93.8 559.1,92.1 631.6,92.2 704.0,90.6" fill="none" stroke="#10B981" stroke-width="2" stroke-linejoin="round"/>
<circle cx="704.0" cy="90.6" r="3.5" fill="#10B981"/>
<rect x="64" y="41" width="10" height="10" fill="#10B981"/>
<text x="80" y="50" font-size="12" fill="#8b8b8b">exp02_full_finetune · 최고 75.7%</text>
<polyline points="52.0,251.4 124.4,202.4 196.9,201.3 269.3,188.1 341.8,176.6 414.2,176.8 486.7,188.2 559.1,167.8 631.6,178.0 704.0,152.2" fill="none" stroke="#F59E0B" stroke-width="2" stroke-linejoin="round"/>
<circle cx="704.0" cy="152.2" r="3.5" fill="#F59E0B"/>
<rect x="64" y="61" width="10" height="10" fill="#F59E0B"/>
<text x="80" y="70" font-size="12" fill="#8b8b8b">exp02b_full_lr1e-3 · 최고 55.0%</text>
<polyline points="52.0,132.8 124.4,115.6 196.9,105.6 269.3,99.7 341.8,97.1 414.2,99.9 486.7,97.3 559.1,93.3 631.6,92.3 704.0,92.8" fill="none" stroke="#EF4444" stroke-width="2" stroke-linejoin="round"/>
<circle cx="704.0" cy="92.8" r="3.5" fill="#EF4444"/>
<rect x="64" y="81" width="10" height="10" fill="#EF4444"/>
<text x="80" y="90" font-size="12" fill="#8b8b8b">exp03_aug_stronger · 최고 75.1%</text>
<line x1="52" y1="316" x2="704" y2="316" stroke="#8b8b8b" stroke-opacity="0.6"/>
</svg>