<svg xmlns="http://www.w3.org/2000/svg" width="720" height="360" viewBox="0 0 720 360" font-family="sans-serif">
<line x1="52" y1="316.0" x2="704" y2="316.0" stroke="#8b8b8b" stroke-opacity="0.25"/>
<text x="44" y="320.0" text-anchor="end" font-size="12" fill="#8b8b8b">0%</text>
<line x1="52" y1="256.4" x2="704" y2="256.4" stroke="#8b8b8b" stroke-opacity="0.25"/>
<text x="44" y="260.4" text-anchor="end" font-size="12" fill="#8b8b8b">20%</text>
<line x1="52" y1="196.8" x2="704" y2="196.8" stroke="#8b8b8b" stroke-opacity="0.25"/>
<text x="44" y="200.8" text-anchor="end" font-size="12" fill="#8b8b8b">40%</text>
<line x1="52" y1="137.2" x2="704" y2="137.2" stroke="#8b8b8b" stroke-opacity="0.25"/>
<text x="44" y="141.2" text-anchor="end" font-size="12" fill="#8b8b8b">60%</text>
<line x1="52" y1="77.6" x2="704" y2="77.6" stroke="#8b8b8b" stroke-opacity="0.25"/>
<text x="44" y="81.6" text-anchor="end" font-size="12" fill="#8b8b8b">80%</text>
<line x1="52" y1="18.0" x2="704" y2="18.0" stroke="#8b8b8b" stroke-opacity="0.25"/>
<text x="44" y="22.0" text-anchor="end" font-size="12" fill="#8b8b8b">100%</text>
<line x1="52" y1="77.6" x2="704" y2="77.6" stroke="#F43F5E" stroke-dasharray="6 4" stroke-opacity="0.8"/>
<text x="704" y="71.6" text-anchor="end" font-size="12" fill="#F43F5E">목표 80%</text>
<text x="52.0" y="336" text-anchor="middle" font-size="12" fill="#8b8b8b">1</text>
<text x="120.6" y="336" text-anchor="middle" font-size="12" fill="#8b8b8b">3</text>
<text x="189.3" y="336" text-anchor="middle" font-size="12" fill="#8b8b8b">5</text>
<text x="257.9" y="336" text-anchor="middle" font-size="12" fill="#8b8b8b">7</text>
<text x="326.5" y="336" text-anchor="middle" font-size="12" fill="#8b8b8b">9</text>
<text x="395.2" y="336" text-anchor="middle" font-size="12" fill="#8b8b8b">11</text>
<text x="463.8" y="336" text-anchor="middle" font-size="12" fill="#8b8b8b">13</text>
<text x="532.4" y="336" text-anchor="middle" font-size="12" fill="#8b8b8b">15</text>
<text x="601.1" y="336" text-anchor="middle" font-size="12" fill="#8b8b8b">17</text>
<text x="669.7" y="336" text-anchor="middle" font-size="12" fill="#8b8b8b">19</text>
<text x="704" y="354" text-anchor="end" font-size="12" fill="#8b8b8b">epoch</text>
<polyline points="52.0,153.3 86.3,130.9 120.6,121.3 154.9,118.3 189.3,116.5 223.6,115.8 257.9,113.7 292.2,109.2 326.5,110.3 360.8,109.9" fill="none" stroke="#6366F1" stroke-width="2" stroke-linejoin="round"/>
<circle cx="360.8" cy="109.9" r="3.5" fill="#6366F1"/>
<rect x="64" y="21" width="10" height="10" fill="#6366F1"/>
<text x="80" y="30" font-size="12" fill="#8b8b8b">exp01_fc_only · 최고 69.4%</text>
<polyline points="52.0,130.2 86.3,106.8 120.6,97.8 154.9,94.4 189.3,91.3 223.6,91.9 257.9,93.8 292.2,92.1 326.5,92.2 360.8,90.6" fill="none" stroke="#10B981" stroke-width="2" stroke-linejoin="round"/>
<circle cx="360.8" cy="90.6" r="3.5" fill="#10B981"/>
<rect x="64" y="41" width="10" height="10" fill="#10B981"/>
<text x="80" y="50" font-size="12" fill="#8b8b8b">exp02_full_finetune · 최고 75.7%</text>
<polyline points="52.0,251.4 86.3,202.4 120.6,201.3 154.9,188.1 189.3,176.6 223.6,176.8 257.9,188.2 292.2,167.8 326.5,178.0 360.8,152.2" fill="none" stroke="#F59E0B" stroke-width="2" stroke-linejoin="round"/>
<circle cx="360.8" cy="152.2" r="3.5" fill="#F59E0B"/>
<rect x="64" y="61" width="10" height="10" fill="#F59E0B"/>
<text x="80" y="70" font-size="12" fill="#8b8b8b">exp02b_full_lr1e-3 · 최고 55.0%</text>
<polyline points="52.0,132.8 86.3,115.6 120.6,105.6 154.9,99.7 189.3,97.1 223.6,99.9 257.9,97.3 292.2,93.3 326.5,92.3 360.8,92.8" fill="none" stroke="#EF4444" stroke-width="2" stroke-linejoin="round"/>
<circle cx="360.8" cy="92.8" r="3.5" fill="#EF4444"/>
<rect x="64" y="81" width="10" height="10" fill="#EF4444"/>
<text x="80" y="90" font-size="12" fill="#8b8b8b">exp03_aug_stronger · 최고 75.1%</text>
<polyline points="52.0,130.6 86.3,111.1 120.6,107.9 154.9,100.3 189.3,98.6 223.6,97.2 257.9,95.8 292.2,92.3 326.5,94.2 360.8,93.0 395.2,92.6 429.5,90.1 463.8,91.0 498.1,93.6 532.4,93.0 566.7,92.1 601.1,92.9 635.4,91.4 669.7,94.6 704.0,94.7" fill="none" stroke="#8B5CF6" stroke-width="2" stroke-linejoin="round"/>
<circle cx="704.0" cy="94.7" r="3.5" fill="#8B5CF6"/>
<rect x="64" y="101" width="10" height="10" fill="#8B5CF6"/>
<text x="80" y="110" font-size="12" fill="#8b8b8b">exp04_aug_epochs20 · 최고 75.8%</text>
<polyline points="52.0,164.8 86.3,138.6 120.6,130.6 154.9,121.8 189.3,118.6 223.6,114.7 257.9,111.6 292.2,109.1 326.5,105.1 360.8,108.7 395.2,110.8 429.5,107.9 463.8,111.7 498.1,109.0 532.4,107.3 566.7,111.3 601.1,105.2 635.4,105.4 669.7,105.1 704.0,107.3" fill="none" stroke="#06B6D4" stroke-width="2" stroke-linejoin="round"/>
<circle cx="704.0" cy="107.3" r="3.5" fill="#06B6D4"/>
<rect x="64" y="121" width="10" height="10" fill="#06B6D4"/>
<text x="80" y="130" font-size="12" fill="#8b8b8b">exp05_person_crop · 최고 70.8%</text>
<line x1="52" y1="316" x2="704" y2="316" stroke="#8b8b8b" stroke-opacity="0.6"/>
</svg>